<svg width="250" height="250" viewBox="0 0 250 250" fill="none" xmlns="http://www.w3.org/2000/svg">
<g clip-path="url(#clip0_32_410)">
<rect width="250" height="250" rx="125" fill="#010000"/>
<path d="M28.0938 98.7188C29.0312 98.7188 29.5 99.25 29.5 100.312C29.5 100.688 29.3438 101.031 29.0312 101.344C23.7812 106.594 17.7188 109.219 10.8438 109.219C9.21875 109.219 7.40625 108.312 5.40625 106.5C3.40625 104.625 2.40625 101.938 2.40625 98.4375C2.40625 94.9375 4.53125 91.0625 8.78125 86.8125C13.0312 82.5 18.9375 78.4375 26.5 74.625C34.125 70.75 43.625 67.3125 55 64.3125C66.375 61.3125 76.5938 59.8125 85.6562 59.8125C94.7188 59.8125 102.156 60.5625 107.969 62.0625C113.781 63.5 118.312 65.3125 121.562 67.5C124.875 69.625 127.594 72.0312 129.719 74.7188C133.281 79.2188 135.062 83.8125 135.062 88.5C135.062 93.125 133.562 97.9062 130.562 102.844C127.562 107.781 123.656 112.188 118.844 116.062C114.094 119.875 108.625 123.438 102.438 126.75C90.875 132.875 78.5 137.375 65.3125 140.25C67.5625 142.562 72.3125 148.375 79.5625 157.688C86.875 166.938 93.5312 174.688 99.5312 180.938C105.594 187.188 110.281 190.312 113.594 190.312L116.688 189.188C117.375 189.188 117.719 189.469 117.719 190.031C117.719 190.531 116.562 192.062 114.25 194.625C112 197.125 110.031 199.031 108.344 200.344C106.656 201.656 104.344 202.312 101.406 202.312C98.5312 202.312 95.25 200.906 91.5625 198.094C87.875 195.281 83.8438 191.312 79.4688 186.188C75.0938 181.062 71.1562 176.25 67.6562 171.75C64.1562 167.188 60.1562 161.844 55.6562 155.719C51.1562 149.531 48.0625 145.344 46.375 143.156C45.75 144.156 44.1562 146.656 41.5938 150.656C39.0312 154.594 37.1562 157.5 35.9688 159.375C34.7812 161.25 33.0625 164 30.8125 167.625C28.5625 171.188 26.8125 174.062 25.5625 176.25C22.125 182.062 19.7188 186.406 18.3438 189.281C17.0312 192.156 14.8438 193.594 11.7812 193.594L8.5 193.5L5.6875 193.594C1.8125 193.594 -0.125 191.969 -0.125 188.719C-0.125 186.281 0.90625 182.812 2.96875 178.312C5.09375 173.75 16.2188 156.844 36.3438 127.594C56.4688 98.2812 67.5625 82.6562 69.625 80.7188C71.6875 78.7188 73.2188 77.5938 74.2188 77.3438C74.9688 76.7812 75.4688 76.5 75.7188 76.5L77.4062 76.7812L79 76.5C79.5625 76.5 80.0625 76.75 80.5 77.25C80.9375 77.6875 81.25 77.9688 81.4375 78.0938C84.0625 80.0312 85.375 81.6562 85.375 82.9688C85.375 84.2812 85.0312 85.5625 84.3438 86.8125C83.7188 88 81.9375 90.7188 79 94.9688C76.0625 99.2188 72.1875 104.75 67.375 111.562C62.625 118.312 59.1875 123.219 57.0625 126.281C62.1875 126.031 68.3438 124.469 75.5312 121.594C82.7188 118.719 89.4375 115.281 95.6875 111.281C102 107.219 107.375 102.844 111.812 98.1562C116.312 93.4062 118.562 89.2812 118.562 85.7812C118.562 83.9062 117.594 82.2188 115.656 80.7188C113.719 79.1562 111.281 77.9375 108.344 77.0625C102.469 75.3125 95.8438 74.4375 88.4688 74.4375C81.0938 74.4375 71.75 76.0312 60.4375 79.2188C49.125 82.4062 40.875 85.4688 35.6875 88.4062C30.5 91.2812 26.75 93.75 24.4375 95.8125C22.125 97.8125 20.9688 99.2188 20.9688 100.031C20.9688 100.469 21.5938 100.688 22.8438 100.688C24.1562 100.688 25.3125 100.375 26.3125 99.75C27.3125 99.0625 27.9062 98.7188 28.0938 98.7188ZM239.781 63.4688C241.719 59.1562 243.094 57 243.906 57H244.375C245.312 57 247.219 58 250.094 60C252.969 62 254.406 63.875 254.406 65.625C254.406 68.0625 246.406 86.9375 230.406 122.25C214.406 157.562 205.219 177.375 202.844 181.688C200.531 185.938 198.938 188.781 198.062 190.219C197.188 191.656 196 193.25 194.5 195C191.812 198.312 188.469 199.969 184.469 199.969C182.844 199.969 181.406 200.156 180.156 200.531C178.906 200.969 178.156 201.188 177.906 201.188C175.906 201.188 174.906 200.719 174.906 199.781C174.906 199.594 175.156 198.812 175.656 197.438C176.219 196.125 183.375 180.969 197.125 151.969C182.438 151.406 169.531 150.969 158.406 150.656C147.719 164.094 138.031 178.156 129.344 192.844C128.281 194.906 127.281 196.344 126.344 197.156C125.406 198.031 124.125 198.469 122.5 198.469C120.875 198.469 119.125 197.625 117.25 195.938C115.375 194.312 114.438 192.406 114.438 190.219C114.438 183.969 122.5 170.594 138.625 150.094C131.062 150.094 126.25 150.281 124.188 150.656C122.188 151.031 120.906 151.219 120.344 151.219C118.656 151.219 117.812 149.812 117.812 147C117.812 144.125 119.469 141.625 122.781 139.5C126.156 137.312 130.656 136.219 136.281 136.219C136.719 136.219 137.5 136.188 138.625 136.125C142.5 135.938 146.469 135.781 150.531 135.656C164.156 119.656 178.406 104.812 193.281 91.125C208.156 77.4375 221.031 67.8438 231.906 62.3438C233.656 61.4688 235.031 61.0625 236.031 61.125C237.094 61.125 238.344 61.9062 239.781 63.4688ZM233.219 76.6875C210.406 94 189.562 113.656 170.688 135.656C181.75 135.906 192.938 136.375 204.25 137.062C215.625 113.125 225.281 93 233.219 76.6875Z" fill="white"/>
<path d="M5.40625 106.5L0.618662 111.607L0.6618 111.647L0.705614 111.687L5.40625 106.5ZM8.78125 86.8125L13.731 91.7622L13.7491 91.7442L13.767 91.726L8.78125 86.8125ZM26.5 74.625L29.6511 80.8756L29.6613 80.8705L29.6713 80.8654L26.5 74.625ZM107.969 62.0625L106.22 68.8404L106.254 68.8493L106.288 68.8578L107.969 62.0625ZM121.562 67.5L117.654 73.3071L117.718 73.3502L117.783 73.3919L121.562 67.5ZM129.719 74.7188L124.228 79.0604L124.23 79.0637L129.719 74.7188ZM118.844 116.062L123.225 121.522L123.234 121.515L118.844 116.062ZM102.438 126.75L105.714 132.936L105.728 132.929L105.741 132.921L102.438 126.75ZM65.3125 140.25L63.8215 133.411L51.5041 136.096L60.2954 145.131L65.3125 140.25ZM79.5625 157.688L74.039 161.988L74.055 162.008L74.0712 162.029L79.5625 157.688ZM99.5312 180.938L94.4815 185.785L94.4941 185.798L94.5067 185.811L99.5312 180.938ZM113.594 190.312V197.312H114.827L115.986 196.891L113.594 190.312ZM116.688 189.188V182.188H115.454L114.295 182.609L116.688 189.188ZM114.25 194.625L109.053 189.935L109.047 189.942L114.25 194.625ZM67.6562 171.75L62.1022 176.011L62.1164 176.029L62.1308 176.048L67.6562 171.75ZM55.6562 155.719L49.9951 159.836L50.0051 159.85L50.0151 159.863L55.6562 155.719ZM46.375 143.156L51.9175 138.881L45.7717 130.914L40.439 139.446L46.375 143.156ZM41.5938 150.656L47.4607 154.474L47.4744 154.453L47.488 154.432L41.5938 150.656ZM30.8125 167.625L36.7309 171.363L36.7455 171.34L36.76 171.317L30.8125 167.625ZM25.5625 176.25L31.5877 179.813L31.6143 179.768L31.6402 179.723L25.5625 176.25ZM18.3438 189.281L12.0288 186.261L12.0019 186.317L11.9759 186.374L18.3438 189.281ZM11.7812 193.594L11.5813 200.591L11.6813 200.594H11.7812V193.594ZM8.5 193.5L8.69992 186.503L8.48334 186.497L8.2668 186.504L8.5 193.5ZM5.6875 193.594V200.594H5.80413L5.9207 200.59L5.6875 193.594ZM2.96875 178.312L-3.37675 175.357L-3.38579 175.376L-3.3947 175.396L2.96875 178.312ZM36.3438 127.594L42.1106 131.562L42.1146 131.556L36.3438 127.594ZM69.625 80.7188L74.4177 85.8207L74.4582 85.7827L74.498 85.7441L69.625 80.7188ZM74.2188 77.3438L75.9165 84.1347L77.2879 83.7919L78.4188 82.9437L74.2188 77.3438ZM75.7188 76.5L76.8695 69.5952L76.2981 69.5H75.7188V76.5ZM77.4062 76.7812L76.2555 83.686L77.4401 83.8834L78.6227 83.6747L77.4062 76.7812ZM79 76.5V69.5H78.3871L77.7835 69.6065L79 76.5ZM80.5 77.25L75.232 81.8595L75.3854 82.0349L75.5503 82.1997L80.5 77.25ZM81.4375 78.0938L85.5945 72.4617L85.4597 72.3623L85.3204 72.2694L81.4375 78.0938ZM84.3438 86.8125L78.2102 83.4391L78.1793 83.4954L78.1493 83.5523L84.3438 86.8125ZM67.375 111.562L61.6577 107.524L61.6504 107.534L67.375 111.562ZM57.0625 126.281L51.3114 122.291L43.2106 133.965L57.4036 133.273L57.0625 126.281ZM95.6875 111.281L99.4609 117.177L99.4683 117.172L99.4757 117.168L95.6875 111.281ZM111.812 98.1562L106.731 93.342L106.729 93.3439L111.812 98.1562ZM115.656 80.7188L111.262 86.1676L111.316 86.2113L111.371 86.2538L115.656 80.7188ZM35.6875 88.4062L39.0807 94.5288L39.1088 94.5133L39.1367 94.4975L35.6875 88.4062ZM24.4375 95.8125L29.0166 101.107L29.057 101.072L29.0968 101.037L24.4375 95.8125ZM26.3125 99.75L30.0225 105.686L30.1522 105.605L30.2782 105.518L26.3125 99.75ZM28.0938 105.719C27.2403 105.719 25.389 105.437 23.8996 103.749C22.5576 102.228 22.5 100.66 22.5 100.312H36.5C36.5 98.9028 36.208 96.538 34.3973 94.4858C32.4391 92.2665 29.8847 91.7188 28.0938 91.7188V105.719ZM22.5 100.312C22.5 99.4936 22.6778 98.6863 23.0102 97.9549C23.3331 97.2446 23.7435 96.7321 24.0815 96.394L33.981 106.293C35.354 104.92 36.5 102.873 36.5 100.312H22.5ZM24.0815 96.394C20.0284 100.447 15.7045 102.219 10.8438 102.219V116.219C19.733 116.219 27.5341 112.74 33.981 106.293L24.0815 96.394ZM10.8438 102.219C11.3531 102.219 11.5651 102.363 11.3961 102.278C11.2125 102.186 10.7808 101.924 10.1069 101.313L0.705614 111.687C3.19859 113.946 6.6453 116.219 10.8438 116.219V102.219ZM10.1938 101.393C9.97186 101.185 9.40625 100.57 9.40625 98.4375H-4.59375C-4.59375 103.305 -3.15936 108.065 0.618662 111.607L10.1938 101.393ZM9.40625 98.4375C9.40625 97.7475 9.91517 95.5781 13.731 91.7622L3.8315 81.8628C-0.852666 86.5469 -4.59375 92.1275 -4.59375 98.4375H9.40625ZM13.767 91.726C17.3161 88.1247 22.5191 84.4711 29.6511 80.8756L23.3489 68.3744C15.3559 72.4039 8.74644 76.8753 3.79551 81.899L13.767 91.726ZM29.6713 80.8654C36.7245 77.281 45.7247 73.9981 56.7851 71.0811L53.2149 57.5439C41.5253 60.6269 31.5255 64.219 23.3287 68.3846L29.6713 80.8654ZM56.7851 71.0811C67.7405 68.1917 77.3443 66.8125 85.6562 66.8125V52.8125C75.8432 52.8125 65.0095 54.4333 53.2149 57.5439L56.7851 71.0811ZM85.6562 66.8125C94.3958 66.8125 101.189 67.5423 106.22 68.8404L109.718 55.2846C103.123 53.5827 95.0417 52.8125 85.6562 52.8125V66.8125ZM106.288 68.8578C111.681 70.1915 115.343 71.7518 117.654 73.3071L125.471 61.6929C121.282 58.8732 115.881 56.8085 109.649 55.2672L106.288 68.8578ZM117.783 73.3919C120.538 75.1596 122.649 77.0637 124.228 79.0604L135.21 70.3771C132.538 66.9988 129.212 64.0904 125.342 61.6081L117.783 73.3919ZM124.23 79.0637C127.04 82.6125 128.062 85.7189 128.062 88.5H142.062C142.062 81.9061 139.523 75.825 135.207 70.3738L124.23 79.0637ZM128.062 88.5C128.062 91.5592 127.079 95.096 124.58 99.2089L136.545 106.479C140.046 100.717 142.062 94.6908 142.062 88.5H128.062ZM124.58 99.2089C122.03 103.406 118.678 107.209 114.454 110.61L123.234 121.515C128.634 117.166 133.095 112.156 136.545 106.479L124.58 99.2089ZM114.462 110.603C110.095 114.109 104.997 117.44 99.1337 120.579L105.741 132.921C112.253 129.435 118.093 125.641 123.225 121.522L114.462 110.603ZM99.1607 120.564C88.1786 126.382 76.4065 130.667 63.8215 133.411L66.8035 147.089C80.5935 144.083 93.5714 139.368 105.714 132.936L99.1607 120.564ZM60.2954 145.131C62.2195 147.109 66.7149 152.58 74.039 161.988L85.086 153.387C77.9101 144.17 72.9055 138.016 70.3296 135.369L60.2954 145.131ZM74.0712 162.029C81.4768 171.396 88.2824 179.328 94.4815 185.785L104.581 176.09C98.7801 170.047 92.2732 162.479 85.0538 153.346L74.0712 162.029ZM94.5067 185.811C97.7183 189.122 100.794 191.849 103.711 193.793C106.487 195.644 109.891 197.312 113.594 197.312V183.312C113.984 183.312 113.388 183.419 111.477 182.144C109.706 180.964 107.407 179.003 104.556 176.064L94.5067 185.811ZM115.986 196.891L119.08 195.766L114.295 182.609L111.202 183.734L115.986 196.891ZM116.688 196.188C116.255 196.188 114.631 196.128 113.028 194.816C111.157 193.285 110.719 191.241 110.719 190.031H124.719C124.719 188.259 124.109 185.793 121.894 183.981C119.947 182.388 117.807 182.188 116.688 182.188V196.188ZM110.719 190.031C110.719 189.408 110.806 188.904 110.883 188.569C110.962 188.226 111.055 187.954 111.124 187.772C111.257 187.423 111.384 187.197 111.419 187.137C111.487 187.016 111.472 187.063 111.265 187.336C110.87 187.86 110.162 188.707 109.053 189.935L119.447 199.315C120.65 197.981 121.677 196.781 122.438 195.773C122.809 195.281 123.228 194.691 123.585 194.062C123.765 193.748 123.999 193.301 124.205 192.762C124.38 192.304 124.719 191.312 124.719 190.031H110.719ZM109.047 189.942C106.936 192.288 105.278 193.86 104.046 194.818L112.641 205.869C114.785 204.202 117.064 201.962 119.453 199.308L109.047 189.942ZM104.046 194.818C103.975 194.874 103.362 195.312 101.406 195.312V209.312C105.326 209.312 109.338 208.439 112.641 205.869L104.046 194.818ZM101.406 195.312C100.752 195.312 98.9669 194.937 95.8076 192.528L87.3174 203.66C91.5331 206.875 96.31 209.312 101.406 209.312V195.312ZM95.8076 192.528C92.6484 190.118 88.9765 186.544 84.7927 181.643L74.1448 190.732C78.711 196.081 83.1016 200.444 87.3174 203.66L95.8076 192.528ZM84.7927 181.643C80.4747 176.584 76.606 171.855 73.1817 167.452L62.1308 176.048C65.7065 180.645 69.7128 185.541 74.1448 190.732L84.7927 181.643ZM73.2103 167.489C69.7473 162.975 65.7773 157.672 61.2974 151.574L50.0151 159.863C54.5352 166.016 58.5652 171.4 62.1022 176.011L73.2103 167.489ZM61.3174 151.602C56.8236 145.423 53.6742 141.158 51.9175 138.881L40.8325 147.432C42.4508 149.53 45.4889 153.64 49.9951 159.836L61.3174 151.602ZM40.439 139.446C39.8394 140.406 38.27 142.868 35.6995 146.88L47.488 154.432C50.0425 150.445 51.6606 147.907 52.311 146.866L40.439 139.446ZM35.7268 146.838C33.1618 150.779 31.267 153.716 30.055 155.63L41.8825 163.12C43.0455 161.284 44.9007 158.408 47.4607 154.474L35.7268 146.838ZM30.055 155.63C28.8502 157.532 27.118 160.304 24.865 163.933L36.76 171.317C39.007 167.696 40.7123 164.968 41.8825 163.12L30.055 155.63ZM24.8941 163.887C22.6202 167.487 20.8084 170.461 19.4848 172.777L31.6402 179.723C32.8166 177.664 34.5048 174.888 36.7309 171.363L24.8941 163.887ZM19.5373 172.687C16.0839 178.526 13.5446 183.092 12.0288 186.261L24.6587 192.301C25.8929 189.721 28.1661 185.599 31.5877 179.813L19.5373 172.687ZM11.9759 186.374C11.8606 186.627 11.7771 186.736 11.7601 186.757C11.7482 186.771 11.7846 186.725 11.8745 186.666C11.9158 186.639 11.9573 186.616 11.9952 186.599C12.0328 186.582 12.058 186.575 12.0654 186.573C12.0814 186.568 11.9991 186.594 11.7812 186.594V200.594C14.4415 200.594 17.1442 199.955 19.563 198.366C21.9676 196.785 23.6223 194.574 24.7116 192.188L11.9759 186.374ZM11.9812 186.597L8.69992 186.503L8.30008 200.497L11.5813 200.591L11.9812 186.597ZM8.2668 186.504L5.4543 186.598L5.9207 200.59L8.7332 200.496L8.2668 186.504ZM5.6875 186.594C5.18515 186.594 4.99713 186.539 5.02925 186.548C5.0793 186.562 5.41449 186.666 5.82641 187.012C6.26455 187.379 6.57368 187.839 6.74335 188.266C6.89604 188.65 6.875 188.85 6.875 188.719H-7.125C-7.125 191.778 -6.15472 195.235 -3.17016 197.738C-0.421438 200.044 2.94182 200.594 5.6875 200.594V186.594ZM6.875 188.719C6.875 187.875 7.34444 185.566 9.3322 181.229L-3.3947 175.396C-5.53194 180.059 -7.125 184.688 -7.125 188.719H6.875ZM9.31425 181.268C10.1112 179.557 13.0844 174.674 18.7538 166.059C24.2773 157.665 32.0584 146.172 42.1106 131.562L30.5769 123.626C20.5041 138.266 12.6602 149.851 7.05872 158.363C1.6031 166.654 -2.04866 172.506 -3.37675 175.357L9.31425 181.268ZM42.1146 131.556C52.1706 116.909 59.9507 105.71 65.4655 97.9431C68.2257 94.0554 70.3951 91.0603 71.9872 88.9351C73.7616 86.5663 74.4447 85.7953 74.4177 85.8207L64.8323 75.6168C63.774 76.6109 62.297 78.5196 60.7824 80.5415C59.0854 82.8068 56.8368 85.9133 54.0501 89.8382C48.4711 97.6959 40.6419 108.966 30.5729 123.632L42.1146 131.556ZM74.498 85.7441C75.4037 84.8658 76.05 84.3209 76.4648 84.0162C76.6673 83.8674 76.7448 83.8277 76.7105 83.8464C76.6966 83.8539 76.4153 84.0101 75.9165 84.1347L72.521 70.5528C70.6803 71.0129 69.1616 72.0095 68.1758 72.7338C67.0594 73.5541 65.9088 74.5717 64.752 75.6934L74.498 85.7441ZM78.4188 82.9437C78.6814 82.7468 78.7181 82.7388 78.5881 82.812C78.522 82.8491 78.2935 82.9753 77.9422 83.107C77.7595 83.1756 77.4898 83.266 77.1499 83.3425C76.8178 83.4172 76.3251 83.5 75.7188 83.5V69.5C73.5973 69.5 71.9924 70.4592 71.7244 70.6099C71.0944 70.9643 70.5061 71.3782 70.0187 71.7438L78.4188 82.9437ZM74.568 83.4048L76.2555 83.686L78.557 69.8765L76.8695 69.5952L74.568 83.4048ZM78.6227 83.6747L80.2165 83.3935L77.7835 69.6065L76.1898 69.8878L78.6227 83.6747ZM79 83.5C78.2016 83.5 77.3946 83.3126 76.6664 82.9485C75.9655 82.5981 75.5011 82.1671 75.232 81.8595L85.768 72.6405C84.266 70.9239 81.951 69.5 79 69.5V83.5ZM75.5503 82.1997C75.9368 82.5863 76.7076 83.3534 77.5546 83.9181L85.3204 72.2694C85.4245 72.3388 85.506 72.3981 85.5613 72.4396C85.6178 72.4819 85.6605 72.5159 85.6876 72.5379C85.7152 72.5603 85.7335 72.5759 85.7415 72.5828C85.7497 72.5899 85.7512 72.5914 85.7453 72.586C85.7323 72.5743 85.7007 72.5454 85.648 72.4949C85.5961 72.4451 85.5304 72.3809 85.4497 72.3003L75.5503 82.1997ZM77.2805 83.7258C77.7902 84.102 78.1776 84.4201 78.4638 84.679C78.7546 84.9422 78.8972 85.1048 78.945 85.164C78.9992 85.231 78.8816 85.1032 78.7378 84.7814C78.5889 84.448 78.375 83.8205 78.375 82.9688H92.375C92.375 80.0066 90.9412 77.7353 89.8362 76.3673C88.6565 74.9067 87.1507 73.6104 85.5945 72.4617L77.2805 83.7258ZM78.375 82.9688C78.375 83.0008 78.38 83.1304 78.2102 83.4391L90.4773 90.1859C91.6825 87.9946 92.375 85.5617 92.375 82.9688H78.375ZM78.1493 83.5523C77.7639 84.2846 76.2627 86.6177 73.2416 90.9887L84.7584 98.9488C87.6123 94.8198 89.6736 91.7154 90.5382 90.0727L78.1493 83.5523ZM73.2416 90.9887C70.3233 95.2109 66.4636 100.72 61.6577 107.524L73.0923 115.601C77.9114 108.78 81.8017 103.227 84.7584 98.9488L73.2416 90.9887ZM61.6504 107.534C56.8995 114.285 53.4505 119.208 51.3114 122.291L62.8136 130.272C64.9245 127.23 68.3505 122.34 73.0996 115.591L61.6504 107.534ZM57.4036 133.273C63.5917 132.971 70.5514 131.125 78.131 128.093L72.9315 115.094C66.1361 117.813 60.7833 119.091 56.7214 119.29L57.4036 133.273ZM78.131 128.093C85.7102 125.061 92.8239 121.425 99.4609 117.177L91.9141 105.385C86.0511 109.138 79.7273 112.376 72.9315 115.094L78.131 128.093ZM99.4757 117.168C106.187 112.849 112.015 108.125 116.896 102.969L106.729 93.3439C102.735 97.5627 97.8132 101.589 91.8993 105.395L99.4757 117.168ZM116.894 102.97C121.673 97.9265 125.562 92.0948 125.562 85.7812H111.562C111.562 86.4677 110.952 88.886 106.731 93.342L116.894 102.97ZM125.562 85.7812C125.562 81.1089 123.021 77.5676 119.941 75.1837L111.371 86.2538C111.797 86.5836 111.838 86.7208 111.765 86.5944C111.726 86.5263 111.67 86.4083 111.626 86.247C111.582 86.0841 111.562 85.9231 111.562 85.7812H125.562ZM120.051 75.2699C117.26 73.0198 113.957 71.4305 110.342 70.3538L106.345 83.7712C108.606 84.4445 110.177 85.2927 111.262 86.1676L120.051 75.2699ZM110.342 70.3538C103.703 68.3761 96.3879 67.4375 88.4688 67.4375V81.4375C95.2996 81.4375 101.235 82.2489 106.345 83.7712L110.342 70.3538ZM88.4688 67.4375C80.1881 67.4375 70.1498 69.2096 58.539 72.4811L62.336 85.9564C73.3502 82.8529 81.9994 81.4375 88.4688 81.4375V67.4375ZM58.539 72.4811C47.1013 75.7039 38.1851 78.9475 32.2383 82.315L39.1367 94.4975C43.5649 91.99 51.1487 89.1086 62.336 85.9564L58.539 72.4811ZM32.2943 82.2837C26.9851 85.2261 22.6848 87.996 19.7782 90.5884L29.0968 101.037C30.8152 99.504 34.0149 97.3364 39.0807 94.5288L32.2943 82.2837ZM19.8584 90.518C18.5747 91.6282 17.3705 92.7763 16.429 93.9214C15.9576 94.4947 15.4227 95.2221 14.9779 96.0756C14.5681 96.8618 13.9688 98.2553 13.9688 100.031H27.9688C27.9688 100.751 27.8426 101.328 27.7262 101.715C27.6093 102.104 27.4767 102.385 27.3932 102.546C27.2375 102.844 27.1361 102.943 27.2429 102.813C27.3323 102.704 27.5134 102.501 27.8245 102.196C28.1301 101.896 28.5231 101.534 29.0166 101.107L19.8584 90.518ZM13.9688 100.031C13.9688 102.008 14.7483 103.814 16.017 105.146C17.1309 106.316 18.3693 106.866 19.125 107.13C20.5754 107.638 22.0011 107.688 22.8438 107.688V93.6875C22.4364 93.6875 22.9246 93.6276 23.75 93.9164C24.1932 94.0716 25.1973 94.4852 26.1549 95.4908C27.2673 96.6588 27.9688 98.2733 27.9688 100.031H13.9688ZM22.8438 107.688C25.3153 107.688 27.7871 107.083 30.0225 105.686L22.6025 93.814C22.6455 93.7871 22.6928 93.7621 22.7421 93.7407C22.7913 93.7193 22.8348 93.7048 22.8689 93.6956C22.9402 93.6763 22.9416 93.6875 22.8438 93.6875V107.688ZM30.2782 105.518C30.7235 105.212 30.9496 105.072 31.0151 105.035C31.0569 105.01 30.9313 105.087 30.6961 105.19C30.5772 105.243 30.3324 105.346 29.9992 105.445C29.8271 105.496 29.5878 105.559 29.2961 105.612C29.0126 105.663 28.5984 105.719 28.0938 105.719V91.7188C26.449 91.7188 25.1927 92.3166 25.0578 92.376C24.6273 92.5654 24.2556 92.7709 24.0006 92.9186C23.4723 93.2244 22.9015 93.6004 22.3468 93.9817L30.2782 105.518ZM239.781 63.4688L234.63 68.2081L241.816 76.0198L246.166 66.3375L239.781 63.4688ZM202.844 181.688L196.712 178.311L196.704 178.326L196.695 178.342L202.844 181.688ZM194.5 195L189.185 190.444L189.124 190.516L189.064 190.59L194.5 195ZM180.156 200.531L178.145 193.826L177.993 193.872L177.844 193.924L180.156 200.531ZM175.656 197.438L169.222 194.68L169.145 194.861L169.078 195.045L175.656 197.438ZM197.125 151.969L203.45 154.968L207.996 145.38L197.393 144.974L197.125 151.969ZM158.406 150.656L158.603 143.659L155.106 143.561L152.928 146.299L158.406 150.656ZM129.344 192.844L123.319 189.28L123.215 189.456L123.121 189.638L129.344 192.844ZM126.344 197.156L121.759 191.866L121.662 191.951L121.568 192.039L126.344 197.156ZM117.25 195.938L121.933 190.734L121.884 190.691L121.835 190.648L117.25 195.938ZM138.625 150.094L144.127 154.421L153.037 143.094H138.625V150.094ZM124.188 150.656L122.935 143.769L122.916 143.773L122.897 143.776L124.188 150.656ZM122.781 139.5L126.561 145.392L126.575 145.383L126.589 145.374L122.781 139.5ZM138.625 136.125L138.287 129.133L138.262 129.134L138.237 129.136L138.625 136.125ZM150.531 135.656L150.747 142.653L153.849 142.557L155.861 140.195L150.531 135.656ZM231.906 62.3438L228.776 56.0828L228.761 56.0899L228.747 56.0972L231.906 62.3438ZM236.031 61.125L235.595 68.1114L235.813 68.125H236.031V61.125ZM233.219 76.6875L239.513 79.7503L228.987 71.1114L233.219 76.6875ZM170.688 135.656L165.375 131.098L155.747 142.32L170.529 142.654L170.688 135.656ZM204.25 137.062L203.825 144.05L208.544 144.336L210.572 140.067L204.25 137.062ZM246.166 66.3375C247.092 64.2781 247.756 63.0271 248.168 62.3808C248.389 62.0338 248.371 62.1276 248.105 62.3895C247.965 62.528 247.605 62.8641 247.021 63.1941C246.441 63.5225 245.36 64 243.906 64V50C240.794 50 238.822 51.8818 238.277 52.4191C237.465 53.22 236.83 54.1225 236.364 54.8535C235.401 56.3635 234.408 58.3469 233.396 60.6L246.166 66.3375ZM243.906 64H244.375V50H243.906V64ZM244.375 64C243.889 64 243.522 63.9375 243.321 63.8948C243.111 63.8503 242.978 63.8052 242.938 63.7911C242.871 63.7676 242.964 63.7955 243.256 63.9488C243.843 64.2567 244.77 64.8235 246.096 65.7463L254.091 54.2537C252.543 53.1765 251.079 52.2433 249.76 51.5512C248.785 51.04 246.722 50 244.375 50V64ZM246.096 65.7463C246.624 66.1136 247.017 66.4277 247.302 66.6834C247.589 66.9416 247.727 67.1054 247.773 67.1653C247.88 67.3048 247.406 66.7503 247.406 65.625H261.406C261.406 62.7497 260.214 60.3827 258.883 58.6472C257.568 56.9319 255.864 55.4871 254.091 54.2537L246.096 65.7463ZM247.406 65.625C247.406 64.7274 247.625 64.3191 247.337 65.2644C247.148 65.8821 246.83 66.8033 246.353 68.0752C245.404 70.6032 243.948 74.19 241.961 78.8777C237.995 88.235 232.023 101.72 224.03 119.361L236.782 125.139C244.789 107.468 250.817 93.8587 254.851 84.341C256.864 79.5912 258.409 75.7953 259.46 72.9951C259.982 71.6029 260.415 70.3737 260.726 69.3547C260.937 68.6633 261.406 67.132 261.406 65.625H247.406ZM224.03 119.361C207.944 154.864 198.916 174.309 196.712 178.311L208.975 185.064C211.522 180.441 220.869 160.261 236.782 125.139L224.03 119.361ZM196.695 178.342C194.372 182.612 192.856 185.309 192.083 186.579L204.042 193.858C205.019 192.253 206.691 189.263 208.992 185.033L196.695 178.342ZM192.083 186.579C191.461 187.601 190.522 188.884 189.185 190.444L199.815 199.556C201.478 197.616 202.914 195.712 204.042 193.858L192.083 186.579ZM189.064 190.59C187.604 192.389 186.203 192.969 184.469 192.969V206.969C190.734 206.969 196.021 204.236 199.936 199.41L189.064 190.59ZM184.469 192.969C182.322 192.969 180.184 193.215 178.145 193.826L182.168 207.236C182.628 207.098 183.366 206.969 184.469 206.969V192.969ZM177.844 193.924C177.564 194.022 177.327 194.103 177.13 194.167C176.93 194.233 176.789 194.276 176.696 194.303C176.651 194.317 176.627 194.323 176.621 194.325C176.613 194.327 176.639 194.32 176.692 194.308C176.719 194.302 176.759 194.294 176.81 194.284C176.86 194.275 176.929 194.263 177.013 194.251C177.096 194.238 177.211 194.224 177.349 194.212C177.484 194.2 177.675 194.188 177.906 194.188V208.188C178.76 208.188 179.466 208.032 179.683 207.985C180.023 207.911 180.346 207.822 180.616 207.743C181.163 207.584 181.795 207.374 182.469 207.138L177.844 193.924ZM177.906 194.188C177.232 194.188 177.722 194.073 178.627 194.498C179.17 194.752 180.055 195.294 180.798 196.34C181.59 197.453 181.906 198.694 181.906 199.781H167.906C167.906 201.337 168.348 202.989 169.389 204.453C170.383 205.851 171.642 206.685 172.685 207.174C174.59 208.067 176.581 208.188 177.906 208.188V194.188ZM181.906 199.781C181.906 199.966 181.899 200.124 181.89 200.248C181.881 200.373 181.87 200.482 181.86 200.569C181.839 200.74 181.816 200.876 181.8 200.963C181.783 201.054 181.767 201.126 181.757 201.173C181.746 201.221 181.737 201.257 181.731 201.278C181.721 201.319 181.716 201.332 181.723 201.308C181.729 201.288 181.741 201.249 181.761 201.188C181.8 201.065 181.858 200.891 181.94 200.657C182.02 200.426 182.118 200.151 182.235 199.83L169.078 195.045C168.817 195.763 168.593 196.402 168.427 196.921C168.346 197.175 168.254 197.475 168.175 197.78C168.163 197.828 167.906 198.725 167.906 199.781H181.906ZM182.09 200.195C182.087 200.203 182.094 200.187 182.118 200.133C182.14 200.084 182.17 200.018 182.209 199.932C182.287 199.76 182.393 199.53 182.528 199.238C182.798 198.656 183.172 197.854 183.653 196.828C184.613 194.779 185.987 191.862 187.775 188.075C191.351 180.502 196.575 169.467 203.45 154.968L190.8 148.97C177.113 177.837 169.854 193.206 169.222 194.68L182.09 200.195ZM197.393 144.974C182.689 144.411 169.758 143.972 158.603 143.659L158.21 157.653C169.305 157.965 182.186 158.402 196.857 158.964L197.393 144.974ZM152.928 146.299C142.041 159.987 132.171 174.314 123.319 189.28L135.369 196.407C143.891 181.998 153.396 168.201 163.885 155.014L152.928 146.299ZM123.121 189.638C122.689 190.477 122.329 191.072 122.051 191.471C121.758 191.892 121.65 191.961 121.759 191.866L130.928 202.446C132.895 200.741 134.388 198.337 135.567 196.049L123.121 189.638ZM121.568 192.039C121.861 191.765 122.176 191.599 122.418 191.516C122.634 191.442 122.692 191.469 122.5 191.469V205.469C125.405 205.469 128.566 204.657 131.12 202.274L121.568 192.039ZM122.5 191.469C122.926 191.469 123.119 191.584 123.009 191.531C122.878 191.467 122.516 191.259 121.933 190.734L112.567 201.141C115.046 203.372 118.408 205.469 122.5 205.469V191.469ZM121.835 190.648C121.659 190.496 121.554 190.379 121.495 190.305C121.466 190.268 121.447 190.241 121.437 190.224C121.431 190.216 121.428 190.21 121.425 190.206C121.423 190.202 121.422 190.2 121.422 190.2C121.422 190.2 121.423 190.201 121.424 190.204C121.425 190.207 121.427 190.21 121.428 190.215C121.432 190.225 121.435 190.235 121.437 190.244C121.442 190.266 121.438 190.262 121.438 190.219H107.438C107.438 194.722 109.486 198.472 112.665 201.227L121.835 190.648ZM121.438 190.219C121.438 189.991 121.555 188.971 122.424 186.855C123.249 184.846 124.57 182.281 126.479 179.114C130.295 172.783 136.142 164.573 144.127 154.421L133.123 145.766C124.983 156.115 118.736 164.842 114.489 171.886C112.367 175.407 110.665 178.638 109.474 181.535C108.328 184.326 107.438 187.322 107.438 190.219H121.438ZM138.625 143.094C131.255 143.094 125.748 143.258 122.935 143.769L125.44 157.543C126.752 157.305 130.87 157.094 138.625 157.094V143.094ZM122.897 143.776C121.944 143.955 121.225 144.077 120.713 144.152C120.458 144.189 120.29 144.21 120.192 144.22C120.068 144.232 120.146 144.219 120.344 144.219V158.219C121.693 158.219 123.674 157.874 125.478 157.536L122.897 143.776ZM120.344 144.219C120.913 144.219 121.752 144.345 122.636 144.836C123.529 145.332 124.112 146.003 124.448 146.563C124.756 147.076 124.829 147.445 124.835 147.473C124.842 147.511 124.812 147.374 124.812 147H110.812C110.812 148.878 111.053 151.45 112.443 153.766C114.174 156.651 117.129 158.219 120.344 158.219V144.219ZM124.812 147C124.812 146.999 124.787 146.991 124.89 146.835C125.042 146.606 125.479 146.086 126.561 145.392L119.002 133.608C114.501 136.496 110.812 140.909 110.812 147H124.812ZM126.589 145.374C128.462 144.16 131.49 143.219 136.281 143.219V129.219C129.822 129.219 123.85 130.465 118.974 133.626L126.589 145.374ZM136.281 143.219C136.937 143.219 137.898 143.176 139.013 143.114L138.237 129.136C137.102 129.199 136.5 129.219 136.281 129.219V143.219ZM138.963 143.117C142.795 142.931 146.723 142.777 150.747 142.653L150.316 128.66C146.214 128.786 142.205 128.944 138.287 129.133L138.963 143.117ZM155.861 140.195C169.309 124.402 183.363 109.764 198.021 96.2761L188.541 85.9739C173.45 99.8609 159.003 114.91 145.202 131.118L155.861 140.195ZM198.021 96.2761C212.69 82.7785 225.018 73.6717 235.065 68.5903L228.747 56.0972C217.044 62.0158 203.623 72.0965 188.541 85.9739L198.021 96.2761ZM235.037 68.6047C235.666 68.2899 236.054 68.149 236.233 68.0959C236.316 68.0716 236.305 68.0806 236.214 68.0938C236.124 68.1068 235.908 68.131 235.595 68.1114L236.468 54.1386C233.535 53.9553 230.761 55.09 228.776 56.0828L235.037 68.6047ZM236.031 68.125C234.836 68.125 234.129 67.693 234.056 67.6469C233.972 67.5945 234.166 67.7045 234.63 68.2081L244.933 58.7294C243.333 56.9901 240.281 54.125 236.031 54.125V68.125ZM228.987 71.1114C205.774 88.7276 184.569 108.726 165.375 131.098L176 140.214C194.556 118.586 215.038 99.2724 237.45 82.2636L228.987 71.1114ZM170.529 142.654C181.501 142.902 192.599 143.367 203.825 144.05L204.675 130.075C193.276 129.383 181.999 128.91 170.846 128.658L170.529 142.654ZM210.572 140.067C221.942 116.141 231.588 96.0368 239.513 79.7503L226.924 73.6247C218.974 89.9632 209.308 110.109 197.928 134.058L210.572 140.067Z" fill="black"/>
</g>
<defs>
<clipPath id="clip0_32_410">
<rect width="250" height="250" rx="125" fill="white"/>
</clipPath>
</defs>
</svg>
